<svg width="24" height="24" viewBox="0 0 24 24" fill="none" xmlns="http://www.w3.org/2000/svg">
<path d="M4 15H2V17H4V15Z" fill="#22183A"/>
<path d="M4 19H2V17H4V19Z" fill="#22183A"/>
<path d="M20 15H22V17H20V15Z" fill="#22183A"/>
<path d="M20 19H22V17H20V19Z" fill="#22183A"/>
<path d="M8 13H4V15H8V13Z" fill="#22183A"/>
<path d="M8 21H4V19H8V21Z" fill="#22183A"/>
<path d="M16 13H20V15H16V13Z" fill="#22183A"/>
<path d="M16 21H20V19H16V21Z" fill="#22183A"/>
<path d="M16 11H8V13H16V11Z" fill="#22183A"/>
<path d="M16 23H8V21H16V23Z" fill="#22183A"/>
<path d="M14 15H10V19H14V15Z" fill="#22183A"/>
<path d="M11 5V9H13V5H11Z" fill="#22183A"/>
<path d="M3 5V7H5V5H3Z" fill="#22183A"/>
<path d="M5 7V9H7V7H5Z" fill="#22183A"/>
<path d="M19 5V7H21V5H19Z" fill="#22183A"/>
<path d="M17 7V9H19V7H17Z" fill="#22183A"/>
<path d="M9 3V5H11V3H9Z" fill="#22183A"/>
<path d="M1 3L1 5H3V3H1Z" fill="#22183A"/>
<path d="M17 3V5H19V3H17Z" fill="#22183A"/>
<path d="M11 1V3H13V1L11 1Z" fill="#22183A"/>
<path d="M3 1V3H5V1L3 1Z" fill="#22183A"/>
<path d="M19 1V3H21V1L19 1Z" fill="#22183A"/>
<path d="M13 3V5H15V3H13Z" fill="#22183A"/>
<path d="M5 3V5H7V3H5Z" fill="#22183A"/>
<path d="M3 3V5H5V3H3Z" fill="#E0B8FF"/>
<path d="M11 3V5H13V3H11Z" fill="#E0B8FF"/>
<path d="M19 3V5H21V3H19Z" fill="#E0B8FF"/>
<path d="M8 13V15H16V13H8Z" fill="#E0B8FF"/>
<path d="M8 19V21H16V19H8Z" fill="#E0B8FF"/>
<path d="M4 15V19H10V15H4Z" fill="#E0B8FF"/>
<path d="M14 15V19H20V15H14Z" fill="#E0B8FF"/>
<path d="M21 3V5H23V3H21Z" fill="#22183A"/>
</svg>
