<svg width="24" height="24" viewBox="0 0 24 24" fill="none" xmlns="http://www.w3.org/2000/svg">
<path d="M2.78009 7.99927V12.0052H21.3207V7.99927H2.78009Z" fill="#E0B8FF"/>
<path d="M4.58582 12.0052V14.0031H19.0098V12.0052H4.58582Z" fill="#E0B8FF"/>
<path d="M6.73541 14.0031V16.0009H17.0107V14.0031H6.73541Z" fill="#E0B8FF"/>
<path d="M8.56262 16.0009V17.9987H15.248V16.0009H8.56262Z" fill="#E0B8FF"/>
<path d="M2.80157 6.00146V7.99927H11.4216V6.00146H2.80157Z" fill="#E0B8FF"/>
<path d="M12.7007 6.00146V7.99927H21.3207V6.00146H12.7007Z" fill="#E0B8FF"/>
<path d="M4.85785 4.00342V6.00122H9.15186V4.00342H4.85785Z" fill="#E0B8FF"/>
<path d="M14.757 4.00342V6.00122H19.051V4.00342H14.757Z" fill="#E0B8FF"/>
<path d="M10.1964 17.9989V19.9967H14.1301V17.9989H10.1964Z" fill="#E0B8FF"/>
<path d="M13 22H11V20H13V22ZM11 20H9V18H11V20ZM15 20H13V18H15V20ZM9 18H7V16H9V18ZM17 18H15V16H17V18ZM7 16H5V14H7V16ZM19 16H17V14H19V16ZM5 14H3V12H5V14ZM21 14H19V12H21V14ZM3 12H1V6H3V12ZM23 12H21V6H23V12ZM13 8H11V6H13V8ZM5 6H3V4H5V6ZM11 6H9V4H11V6ZM15 6H13V4H15V6ZM21 6H19V4H21V6ZM9 4H5V2H9V4ZM19 4H15V2H19V4Z" fill="black"/>
</svg>
