<svg width="24" height="24" viewBox="0 0 24 24" fill="none" xmlns="http://www.w3.org/2000/svg">
<path d="M5.99805 5.9209H3.99805V16.121H5.99805V5.9209Z" fill="#E0B8FF"/>
<path d="M7.99805 3.79248H5.99805V18.0261H7.99805V3.79248Z" fill="#E0B8FF"/>
<path d="M9.99805 3.79248H7.99805V20.0634H9.99805V3.79248Z" fill="#E0B8FF"/>
<path d="M12 13.4756H10V20.0634H12V13.4756Z" fill="#E0B8FF"/>
<path d="M14.002 15.4335H12.002V20.0634H14.002V15.4335Z" fill="#E0B8FF"/>
<path d="M16.0039 14.9043H14.0039V20.0634H16.0039V14.9043Z" fill="#E0B8FF"/>
<path d="M18.0059 15.0895H16.0059V20.0634H18.0059V15.0895Z" fill="#E0B8FF"/>
<path d="M20.0078 13.4756H18.0078V18.6876H20.0078V13.4756Z" fill="#E0B8FF"/>
<path d="M18 22H8V20H18V22ZM8 20H6V18H8V20ZM20 20H18V18H20V20ZM6 18H4V16H6V18ZM22 18H20V14H18V12H20V10H22V18ZM4 16H2V6H4V16ZM18 16H12V14H18V16ZM12 14H10V12H12V14ZM10 12H8V6H10V12ZM6 6H4V4H6V6ZM14 4H12V6H10V4H6V2H14V4Z" fill="#352B4A"/>
</svg>
