<svg width="38" height="38" viewBox="0 0 38 38" fill="none" xmlns="http://www.w3.org/2000/svg">
<path d="M6.33335 30.0833H12.6667V33.25H3.16669V20.5833H6.33335V30.0833ZM19 30.0833H12.6667V26.9167H19V30.0833ZM25.3334 26.9167H19V23.75H25.3334V26.9167ZM31.6667 23.75H25.3334V20.5833H31.6667V23.75ZM15.8334 20.5833H6.33335V17.4167H15.8334V20.5833ZM34.8334 20.5833H31.6667V17.4167H34.8334V20.5833ZM12.6667 7.91667H6.33335V17.4167H3.16669V4.75H12.6667V7.91667ZM31.6667 17.4167H25.3334V14.25H31.6667V17.4167ZM25.3334 14.25H19V11.0833H25.3334V14.25ZM19 11.0833H12.6667V7.91667H19V11.0833Z" fill="#22183A"/>
</svg>
