<svg width="24" height="24" viewBox="0 0 24 24" fill="none" xmlns="http://www.w3.org/2000/svg">
<path d="M13 1H11V5H13V1Z" fill="#352B4A"/>
<path d="M13 23H11V19H13V23Z" fill="#352B4A"/>
<path d="M11 5H9V9H11V5Z" fill="#352B4A"/>
<path d="M11 19H9V15H11V19Z" fill="#352B4A"/>
<path d="M15 5H13V9H15V5Z" fill="#352B4A"/>
<path d="M15 19H13V15H15V19Z" fill="#352B4A"/>
<path d="M9 9H5V11H9V9Z" fill="#352B4A"/>
<path d="M15 9H19V11H15V9Z" fill="#352B4A"/>
<path d="M5 11H1V13H5V11Z" fill="#352B4A"/>
<path d="M19 11H23V13H19V11Z" fill="#352B4A"/>
<path d="M9 13H5V15H9V13Z" fill="#352B4A"/>
<path d="M15 13H19V15H15V13Z" fill="#352B4A"/>
<path d="M21 1H19V7H21V1Z" fill="#352B4A"/>
<path d="M23 3H17V5H23V3Z" fill="#352B4A"/>
<path d="M5 17H3V19H5V17Z" fill="#352B4A"/>
<path d="M3 19H1V21H3V19Z" fill="#352B4A"/>
<path d="M5 21H3V23H5V21Z" fill="#352B4A"/>
<path d="M7 19H5V21H7V19Z" fill="#352B4A"/>
</svg>
